<svg width="139" height="245" viewBox="0 0 139 245" fill="none" xmlns="http://www.w3.org/2000/svg">
<path d="M58.2425 225.65C26.0103 167.6 3.34157 113.835 0.507978 89.0946C-4.21468 46.8011 24.5935 5.19871 61.9026 0.499439C94.7251 -3.64698 124.596 18.329 136.284 55.094C138.41 61.7282 138.882 66.1511 139 79.1432C139 92.9646 138.528 96.5582 135.576 107.339C131.208 122.819 115.859 159.446 102.517 185.983C90.0024 210.999 71.2298 245 69.9311 245C69.4588 245 64.1458 236.293 58.2425 225.65ZM35.6918 98.9078C38.6435 97.111 43.13 95.7289 46.0817 95.7289C49.5056 95.7289 52.3392 96.6964 54.7005 98.9078C57.8883 101.534 59.7774 101.949 69.9311 101.949C80.0848 101.949 81.9739 101.534 85.1617 98.9078C87.523 96.6964 90.3566 95.7289 93.7805 95.7289C96.7322 95.7289 101.219 97.111 104.17 98.9078C108.657 101.534 110.074 103.469 113.734 112.038L118.102 121.99L120.345 117.428C139.236 79.9725 124.832 32.8415 89.4121 16.9469C79.2583 12.2476 60.6038 12.2476 50.4501 16.9469C32.8582 24.8251 21.2877 38.5083 14.4398 59.1022C12.1966 65.7364 11.7243 70.1593 11.6062 81.2164C11.4882 96.1435 13.3772 104.989 18.8083 116.185L21.76 122.128L26.1284 112.038C29.7885 103.469 31.2053 101.534 35.6918 98.9078Z" fill="#E50027"/>
<path d="M65.5625 92.8261C60.3676 91.0293 54.7004 84.1186 49.5055 73.1997C45.137 64.354 44.0744 57.9962 46.3177 56.3376C47.0261 55.923 47.4984 53.1587 47.4984 50.2562C47.4984 42.2398 51.9849 33.5323 58.1243 29.8005C64.4999 25.7923 74.2995 25.5159 81.2654 29.2477C87.9952 32.8412 90.9468 39.1991 92.5998 53.1587L93.8985 64.7687L89.0578 74.4436C83.6267 85.5008 80.4389 89.2325 74.4175 92.2733C71.9381 93.379 69.8129 94.3465 69.6949 94.2083C69.4587 94.2083 67.5697 93.5172 65.5625 92.8261ZM75.9524 88.1268C79.2582 86.0536 86.4603 75.964 86.4603 73.3379C86.4603 72.7851 87.5229 70.9883 88.8216 69.4679C91.183 66.7037 92.1275 59.1019 90.2384 58.1344C89.7662 57.9962 88.2313 55.6465 86.9326 53.0205L84.6893 48.183L70.2852 48.0448C54.5823 47.7683 54.3462 47.9066 50.2139 56.614C48.3248 60.3458 48.2068 67.5329 49.8597 68.7769C50.5681 69.3297 52.1029 71.9558 53.2836 74.7201C58.9508 87.8504 67.8058 92.9643 75.9524 88.1268Z" fill="#E50027"/>
</svg>
